<svg width="32" height="32" viewBox="0 0 32 32" fill="none" xmlns="http://www.w3.org/2000/svg">
<path d="M25.7032 6.84801C23.9186 6.02914 22.0048 5.42584 20.0039 5.08031C19.9674 5.07364 19.931 5.0903 19.9123 5.12364C19.6661 5.56139 19.3935 6.13247 19.2026 6.58134C17.0505 6.25914 14.9094 6.25914 12.8014 6.58134C12.6104 6.12249 12.3279 5.56139 12.0807 5.12364C12.0619 5.09142 12.0255 5.07475 11.9891 5.08031C9.98923 5.42474 8.07549 6.02804 6.28976 6.84801C6.2743 6.85467 6.26105 6.86579 6.25225 6.88023C2.62229 12.3033 1.62789 17.5931 2.11571 22.8173C2.11792 22.8429 2.13226 22.8673 2.15213 22.8829C4.54708 24.6417 6.86699 25.7094 9.14383 26.4171C9.18026 26.4283 9.21887 26.4149 9.24206 26.3849C9.78065 25.6494 10.2607 24.8739 10.6724 24.0583C10.6967 24.0106 10.6735 23.9539 10.6238 23.935C9.86232 23.6462 9.1372 23.2939 8.43968 22.894C8.38451 22.8618 8.3801 22.7828 8.43085 22.7451C8.57763 22.6351 8.72446 22.5206 8.86461 22.4051C8.88997 22.384 8.92531 22.3795 8.95512 22.3929C13.5375 24.485 18.4985 24.485 23.0268 22.3929C23.0566 22.3784 23.0919 22.3829 23.1184 22.404C23.2586 22.5195 23.4054 22.6351 23.5533 22.7451C23.604 22.7828 23.6007 22.8618 23.5455 22.894C22.848 23.3017 22.1229 23.6462 21.3603 23.9339C21.3106 23.9528 21.2885 24.0106 21.3128 24.0583C21.7333 24.8728 22.2134 25.6483 22.742 26.3838C22.7641 26.4149 22.8038 26.4283 22.8403 26.4171C25.1282 25.7094 27.4481 24.6417 29.843 22.8829C29.864 22.8673 29.8772 22.844 29.8794 22.8184C30.4633 16.7787 28.9016 11.5322 25.7396 6.88133C25.7319 6.86579 25.7186 6.85467 25.7032 6.84801ZM11.3567 19.6363C9.97708 19.6363 8.84032 18.3697 8.84032 16.8142C8.84032 15.2587 9.95504 13.9921 11.3567 13.9921C12.7694 13.9921 13.8951 15.2699 13.873 16.8142C13.873 18.3697 12.7583 19.6363 11.3567 19.6363ZM20.6605 19.6363C19.281 19.6363 18.1442 18.3697 18.1442 16.8142C18.1442 15.2587 19.2589 13.9921 20.6605 13.9921C22.0732 13.9921 23.199 15.2699 23.1769 16.8142C23.1769 18.3697 22.0732 19.6363 20.6605 19.6363Z" fill="url(#paint0_linear_1733_8521)"/>
<defs>
<linearGradient id="paint0_linear_1733_8521" x1="3.65379" y1="7.76254" x2="18.2206" y2="30.2871" gradientUnits="userSpaceOnUse">
<stop stop-color="#3366FF" stop-opacity="0.8"/>
<stop offset="0.1" stop-color="#3054FF" stop-opacity="0.88"/>
<stop offset="0.21" stop-color="#2E45FF" stop-opacity="0.95"/>
<stop offset="0.34" stop-color="#2C3DFF" stop-opacity="0.99"/>
<stop offset="0.5" stop-color="#2C3AFF"/>
<stop offset="0.66" stop-color="#2C3DFF" stop-opacity="0.99"/>
<stop offset="0.79" stop-color="#2E45FF" stop-opacity="0.95"/>
<stop offset="0.9" stop-color="#3054FF" stop-opacity="0.88"/>
<stop offset="1" stop-color="#3366FF" stop-opacity="0.8"/>
</linearGradient>
</defs>
</svg>
