<svg width="266" height="266" viewBox="0 0 266 266" fill="none" xmlns="http://www.w3.org/2000/svg">
<path d="M0 117.628V227.81C-1.28895e-07 232.826 0.988065 237.792 2.90779 242.426C4.82752 247.06 7.64129 251.271 11.1884 254.817C14.7355 258.364 18.9465 261.177 23.5808 263.095C28.2152 265.014 33.182 266.001 38.1979 266H227.802C232.818 266.001 237.785 265.014 242.419 263.095C247.053 261.177 251.264 258.364 254.812 254.817C258.359 251.271 261.172 247.06 263.092 242.426C265.012 237.792 266 232.826 266 227.81V38.1991C266 28.0681 261.976 18.352 254.812 11.1883C247.649 4.02453 237.933 1.34404e-06 227.802 1.34404e-06H102.326C96.625 -0.00151133 90.9964 1.27385 85.8531 3.73245C80.7099 6.19104 76.1826 9.77044 72.6037 14.2078L8.47589 93.6537C2.99199 100.44 0.000409791 108.902 0 117.628Z" fill='white'/>
<mask id="path-1-inside-1_1301_6950" fill="white">
<path d="M0 117.628V227.81C-1.28895e-07 232.826 0.988065 237.792 2.90779 242.426C4.82752 247.06 7.64129 251.271 11.1884 254.817C14.7355 258.364 18.9465 261.177 23.5808 263.095C28.2152 265.014 33.182 266.001 38.1979 266H227.802C232.818 266.001 237.785 265.014 242.419 263.095C247.053 261.177 251.264 258.364 254.812 254.817C258.359 251.271 261.172 247.06 263.092 242.426C265.012 237.792 266 232.826 266 227.81V38.1991C266 28.0681 261.976 18.352 254.812 11.1883C247.649 4.02453 237.933 1.34404e-06 227.802 1.34404e-06H102.326C96.625 -0.00151133 90.9964 1.27385 85.8531 3.73245C80.7099 6.19104 76.1826 9.77044 72.6037 14.2078L8.47589 93.6537C2.99199 100.44 0.000409791 108.902 0 117.628Z" fill="white"/>
</mask>
<path d="M0 117.628L-17.9247 117.627V117.628H0ZM0 227.81H17.9247H0ZM38.1979 266V248.075H38.1938L38.1979 266ZM227.802 266L227.806 248.075H227.802V266ZM266 227.81H248.075H266ZM266 38.1991H283.925H266ZM227.802 1.34404e-06V-17.9247V1.34404e-06ZM102.326 1.34404e-06L102.321 17.9247H102.326V1.34404e-06ZM72.6037 14.2078L86.5515 25.4663L86.5559 25.4608L72.6037 14.2078ZM8.47589 93.6537L22.418 104.919L22.4237 104.912L8.47589 93.6537ZM-17.9247 117.628V227.81H17.9247V117.628H-17.9247ZM-17.9247 227.81C-17.9247 235.18 -16.4729 242.478 -13.6522 249.287L19.4678 235.566C18.449 233.107 17.9247 230.471 17.9247 227.81H-17.9247ZM-13.6522 249.287C-10.8314 256.096 -6.69704 262.282 -1.48504 267.493L23.8619 242.141C21.9796 240.26 20.4865 238.025 19.4678 235.566L-13.6522 249.287ZM-1.48504 267.493C3.727 272.704 9.91448 276.837 16.724 279.657L30.4377 246.534C27.9785 245.516 25.744 244.023 23.8619 242.141L-1.48504 267.493ZM16.724 279.657C23.5335 282.476 30.8317 283.926 38.2019 283.925L38.1938 248.075C35.5323 248.076 32.8968 247.552 30.4377 246.534L16.724 279.657ZM38.1979 283.925H227.802V248.075H38.1979V283.925ZM227.798 283.925C235.168 283.926 242.466 282.476 249.276 279.657L235.562 246.534C233.103 247.552 230.468 248.076 227.806 248.075L227.798 283.925ZM249.276 279.657C256.085 276.837 262.273 272.704 267.485 267.493L242.138 242.141C240.256 244.023 238.021 245.516 235.562 246.534L249.276 279.657ZM267.485 267.493C272.697 262.282 276.831 256.096 279.652 249.287L246.532 235.566C245.513 238.025 244.02 240.26 242.138 242.141L267.485 267.493ZM279.652 249.287C282.473 242.478 283.925 235.18 283.925 227.81H248.075C248.075 230.471 247.551 233.107 246.532 235.566L279.652 249.287ZM283.925 227.81V38.1991H248.075V227.81H283.925ZM283.925 38.1991C283.925 23.3143 278.012 9.03906 267.487 -1.48621L242.137 23.8627C245.939 27.6649 248.075 32.8219 248.075 38.1991H283.925ZM267.487 -1.48621C256.962 -12.0115 242.687 -17.9247 227.802 -17.9247V17.9247C233.179 17.9247 238.335 20.0606 242.137 23.8627L267.487 -1.48621ZM227.802 -17.9247H102.326V17.9247H227.802V-17.9247ZM102.33 -17.9247C93.9528 -17.9269 85.681 -16.0527 78.1226 -12.4395L93.5837 19.9044C96.3118 18.6004 99.2972 17.9239 102.321 17.9247L102.33 -17.9247ZM78.1226 -12.4395C70.564 -8.82639 63.9109 -3.56616 58.6515 2.95477L86.5559 25.4608C88.4543 23.107 90.8557 21.2085 93.5837 19.9044L78.1226 -12.4395ZM58.6559 2.94929L-5.4719 82.3952L22.4237 104.912L86.5515 25.4663L58.6559 2.94929ZM-5.46617 82.3881C-13.5269 92.3639 -17.9241 104.801 -17.9247 117.627L17.9247 117.629C17.9249 113.003 19.5109 108.517 22.418 104.919L-5.46617 82.3881Z" fill="url(#paint0_linear_1301_6950)" mask="url(#path-1-inside-1_1301_6950)"/>
<path d="M230.184 203.661C230.182 209.624 228.32 215.441 224.856 220.311C221.391 225.181 216.493 228.866 210.834 230.859C207.712 231.971 204.42 232.536 201.103 232.53H152.744V213.338H201.123C203.707 213.338 206.185 212.319 208.012 210.504C209.839 208.689 210.865 206.227 210.865 203.661C210.865 201.094 209.839 198.633 208.012 196.818C206.185 195.003 203.707 193.983 201.123 193.983H177.037C175.366 193.986 173.698 193.842 172.052 193.553C170.435 193.274 168.843 192.863 167.295 192.322C160.834 190.046 155.391 185.574 151.928 179.697C148.466 173.819 147.206 166.915 148.372 160.204C149.537 153.494 153.054 147.408 158.299 143.024C163.545 138.64 170.181 136.239 177.037 136.245H225.416V155.436H177.037C175.757 155.436 174.49 155.687 173.309 156.173C172.127 156.659 171.053 157.372 170.148 158.271C169.243 159.17 168.526 160.236 168.036 161.411C167.547 162.585 167.295 163.843 167.295 165.114C167.295 166.385 167.547 167.643 168.036 168.818C168.526 169.992 169.243 171.059 170.148 171.957C171.053 172.856 172.127 173.569 173.309 174.055C174.49 174.541 175.757 174.792 177.037 174.792H201.123C202.79 174.791 204.455 174.932 206.098 175.212C207.71 175.487 209.295 175.902 210.834 176.453C216.488 178.453 221.38 182.142 224.841 187.013C228.301 191.884 230.16 197.699 230.164 203.661H230.184Z" fill="url(#paint1_linear_1301_6950)"/>
<path d="M130.674 132.132V35.0244H110.937V132.132H130.674Z" fill="url(#paint2_linear_1301_6950)"/>
<path d="M167.438 73.0865V63.3054C167.438 60.7195 168.472 58.2396 170.313 56.4111C172.154 54.5826 174.651 53.5553 177.255 53.5553H226.072V34.2H177.255C173.406 34.1986 169.595 34.9505 166.038 36.4127C162.482 37.8749 159.251 40.0188 156.529 42.7217C153.807 45.4247 151.649 48.6338 150.176 52.1656C148.704 55.6975 147.947 59.4828 147.948 63.3054V102.192C147.944 106.016 148.699 109.803 150.171 113.337C151.642 116.87 153.8 120.081 156.522 122.785C159.244 125.49 162.477 127.634 166.034 129.097C169.592 130.559 173.405 131.31 177.255 131.308H226.072V111.952H177.255C174.651 111.95 172.153 110.92 170.313 109.09C168.472 107.26 167.438 104.779 167.438 102.192V73.0865Z" fill="url(#paint3_linear_1301_6950)"/>
<path d="M130.672 136.926V207.616C130.664 213.663 128.456 219.501 124.458 224.044C120.46 228.587 114.944 231.527 108.937 232.317C102.93 233.106 96.8396 231.691 91.7993 228.335C86.759 224.979 83.1117 219.911 81.5355 214.073L81.4422 213.731L72.8052 181.563L66.5012 158.127V158.075C66.1454 156.773 65.3288 155.644 64.2027 154.898C63.0766 154.151 61.7174 153.837 60.377 154.014C59.0366 154.19 57.8059 154.846 56.913 155.859C56.0201 156.873 55.5255 158.174 55.5209 159.524V230.204H36.1006V159.524C36.106 153.476 38.3126 147.637 42.3097 143.091C46.3069 138.546 51.8225 135.604 57.8305 134.814C63.8385 134.023 69.9298 135.437 74.9712 138.793C80.0125 142.149 83.6608 147.218 85.2371 153.057L85.3097 153.315L93.9778 185.577L100.272 209.013C100.627 210.314 101.443 211.442 102.568 212.189C103.693 212.936 105.051 213.251 106.391 213.075C107.73 212.9 108.961 212.246 109.855 211.235C110.748 210.223 111.245 208.923 111.252 207.575V136.926H130.672Z" fill="url(#paint4_linear_1301_6950)"/>
<defs>
<linearGradient id="paint0_linear_1301_6950" x1="15.711" y1="33.4483" x2="212.128" y2="264.948" gradientUnits="userSpaceOnUse">
<stop stop-color="#3366FF" stop-opacity="0.8"/>
<stop offset="0.1" stop-color="#3054FF" stop-opacity="0.88"/>
<stop offset="0.21" stop-color="#2E45FF" stop-opacity="0.95"/>
<stop offset="0.34" stop-color="#2C3DFF" stop-opacity="0.99"/>
<stop offset="0.5" stop-color="#2C3AFF"/>
<stop offset="0.66" stop-color="#2C3DFF" stop-opacity="0.99"/>
<stop offset="0.79" stop-color="#2E45FF" stop-opacity="0.95"/>
<stop offset="0.9" stop-color="#3054FF" stop-opacity="0.88"/>
<stop offset="1" stop-color="#3366FF" stop-opacity="0.8"/>
</linearGradient>
<linearGradient id="paint1_linear_1301_6950" x1="152.805" y1="148.352" x2="224.864" y2="220.89" gradientUnits="userSpaceOnUse">
<stop stop-color="#3366FF" stop-opacity="0.8"/>
<stop offset="0.1" stop-color="#3054FF" stop-opacity="0.88"/>
<stop offset="0.21" stop-color="#2E45FF" stop-opacity="0.95"/>
<stop offset="0.34" stop-color="#2C3DFF" stop-opacity="0.99"/>
<stop offset="0.5" stop-color="#2C3AFF"/>
<stop offset="0.66" stop-color="#2C3DFF" stop-opacity="0.99"/>
<stop offset="0.79" stop-color="#2E45FF" stop-opacity="0.95"/>
<stop offset="0.9" stop-color="#3054FF" stop-opacity="0.88"/>
<stop offset="1" stop-color="#3366FF" stop-opacity="0.8"/>
</linearGradient>
<linearGradient id="paint2_linear_1301_6950" x1="128.192" y1="40.76" x2="99.5032" y2="45.7072" gradientUnits="userSpaceOnUse">
<stop stop-color="#3366FF" stop-opacity="0.8"/>
<stop offset="0.1" stop-color="#3054FF" stop-opacity="0.88"/>
<stop offset="0.21" stop-color="#2E45FF" stop-opacity="0.95"/>
<stop offset="0.34" stop-color="#2C3DFF" stop-opacity="0.99"/>
<stop offset="0.5" stop-color="#2C3AFF"/>
<stop offset="0.66" stop-color="#2C3DFF" stop-opacity="0.99"/>
<stop offset="0.79" stop-color="#2E45FF" stop-opacity="0.95"/>
<stop offset="0.9" stop-color="#3054FF" stop-opacity="0.88"/>
<stop offset="1" stop-color="#3366FF" stop-opacity="0.8"/>
</linearGradient>
<linearGradient id="paint3_linear_1301_6950" x1="152.563" y1="46.4108" x2="225.136" y2="115.225" gradientUnits="userSpaceOnUse">
<stop stop-color="#3366FF" stop-opacity="0.8"/>
<stop offset="0.1" stop-color="#3054FF" stop-opacity="0.88"/>
<stop offset="0.21" stop-color="#2E45FF" stop-opacity="0.95"/>
<stop offset="0.34" stop-color="#2C3DFF" stop-opacity="0.99"/>
<stop offset="0.5" stop-color="#2C3AFF"/>
<stop offset="0.66" stop-color="#2C3DFF" stop-opacity="0.99"/>
<stop offset="0.79" stop-color="#2E45FF" stop-opacity="0.95"/>
<stop offset="0.9" stop-color="#3054FF" stop-opacity="0.88"/>
<stop offset="1" stop-color="#3366FF" stop-opacity="0.8"/>
</linearGradient>
<linearGradient id="paint4_linear_1301_6950" x1="41.6863" y1="146.914" x2="114.368" y2="229.639" gradientUnits="userSpaceOnUse">
<stop stop-color="#3366FF" stop-opacity="0.8"/>
<stop offset="0.1" stop-color="#3054FF" stop-opacity="0.88"/>
<stop offset="0.21" stop-color="#2E45FF" stop-opacity="0.95"/>
<stop offset="0.34" stop-color="#2C3DFF" stop-opacity="0.99"/>
<stop offset="0.5" stop-color="#2C3AFF"/>
<stop offset="0.66" stop-color="#2C3DFF" stop-opacity="0.99"/>
<stop offset="0.79" stop-color="#2E45FF" stop-opacity="0.95"/>
<stop offset="0.9" stop-color="#3054FF" stop-opacity="0.88"/>
<stop offset="1" stop-color="#3366FF" stop-opacity="0.8"/>
</linearGradient>
</defs>
</svg>
