<svg width="32" height="32" viewBox="0 0 32 32" fill="none" xmlns="http://www.w3.org/2000/svg">
<path d="M2 16C2 8.26801 8.26801 2 16 2C23.732 2 30 8.26801 30 16C30 23.732 23.732 30 16 30C8.26801 30 2 23.732 2 16Z" fill="white"/>
<path fill-rule="evenodd" clip-rule="evenodd" d="M16 2C8.265 2 2 8.265 2 16C2 22.195 6.0075 27.4275 11.5725 29.2825C12.2725 29.405 12.535 28.985 12.535 28.6175C12.535 28.285 12.5175 27.1825 12.5175 26.01C9 26.6575 8.09 25.1525 7.81 24.365C7.6525 23.9625 6.97 22.72 6.375 22.3875C5.885 22.125 5.185 21.4775 6.3575 21.46C7.46 21.4425 8.2475 22.475 8.51 22.895C9.77 25.0125 11.7825 24.4175 12.5875 24.05C12.71 23.14 13.0775 22.5275 13.48 22.1775C10.365 21.8275 7.11 20.62 7.11 15.265C7.11 13.7425 7.6525 12.4825 8.545 11.5025C8.405 11.1525 7.915 9.7175 8.685 7.7925C8.685 7.7925 9.8575 7.425 12.535 9.2275C13.655 8.9125 14.845 8.755 16.035 8.755C17.225 8.755 18.415 8.9125 19.535 9.2275C22.2125 7.4075 23.385 7.7925 23.385 7.7925C24.155 9.7175 23.665 11.1525 23.525 11.5025C24.4175 12.4825 24.96 13.725 24.96 15.265C24.96 20.6375 21.6875 21.8275 18.5725 22.1775C19.08 22.615 19.5175 23.455 19.5175 24.7675C19.5175 26.64 19.5 28.145 19.5 28.6175C19.5 28.985 19.7625 29.4225 20.4625 29.2825C25.9925 27.4275 30 22.1775 30 16C30 8.265 23.735 2 16 2Z" fill="url(#paint0_linear_1733_8541)"/>
<defs>
<linearGradient id="paint0_linear_1733_8541" x1="3.65379" y1="5.43401" x2="23.7312" y2="29.6962" gradientUnits="userSpaceOnUse">
<stop stop-color="#3366FF" stop-opacity="0.8"/>
<stop offset="0.1" stop-color="#3054FF" stop-opacity="0.88"/>
<stop offset="0.21" stop-color="#2E45FF" stop-opacity="0.95"/>
<stop offset="0.34" stop-color="#2C3DFF" stop-opacity="0.99"/>
<stop offset="0.5" stop-color="#2C3AFF"/>
<stop offset="0.66" stop-color="#2C3DFF" stop-opacity="0.99"/>
<stop offset="0.79" stop-color="#2E45FF" stop-opacity="0.95"/>
<stop offset="0.9" stop-color="#3054FF" stop-opacity="0.88"/>
<stop offset="1" stop-color="#3366FF" stop-opacity="0.8"/>
</linearGradient>
</defs>
</svg>
