<svg width="48" height="48" viewBox="0 0 48 48" fill="none" xmlns="http://www.w3.org/2000/svg">
<path d="M6.89285 46.3827H6.89248C6.1998 46.3829 5.51387 46.2466 4.87386 45.9816C4.23384 45.7166 3.65229 45.3282 3.16243 44.8384C2.67256 44.3486 2.28397 43.7671 2.01885 43.1271C1.75372 42.4872 1.61727 41.8012 1.61727 41.1085V21.2261C1.61727 21.2261 1.61727 21.2261 1.61727 21.2261C1.61734 20.0214 2.03035 18.8533 2.78742 17.9164L2.78793 17.9157L14.3599 3.57962L14.3603 3.57912C14.8545 2.96639 15.4796 2.47214 16.1898 2.13265C16.9 1.79316 17.6772 1.61706 18.4643 1.61727H18.4648H41.1071C42.5063 1.61727 43.8482 2.1731 44.8375 3.1625L45.9811 2.01893L44.8375 3.1625C45.8269 4.1519 46.3827 5.49383 46.3827 6.89308V41.1085C46.3827 41.8012 46.2463 42.4872 45.9811 43.1271C45.716 43.7671 45.3274 44.3486 44.8376 44.8384C44.3477 45.3282 43.7662 45.7166 43.1261 45.9816C42.4861 46.2466 41.8002 46.3829 41.1075 46.3827H41.1071H6.89285Z" stroke="url(#paint0_linear_1481_15803)" stroke-width="3.23453" stroke-linecap="round" stroke-linejoin="round"/>
<path d="M11.9449 29.3346C12.5946 29.3346 13.1835 29.4862 13.7119 29.7893C14.2489 30.0838 14.669 30.5039 14.9722 31.0496C15.2753 31.5866 15.4269 32.2146 15.4269 32.9335C15.4269 33.6524 15.2753 34.2847 14.9722 34.8304C14.669 35.3674 14.2489 35.7875 13.7119 36.0907C13.1835 36.3852 12.5946 36.5324 11.9449 36.5324C11.0528 36.5324 10.3512 36.2509 9.84015 35.6879V38.949H7.81332V29.4385H9.7492V30.244C10.2516 29.6377 10.9835 29.3346 11.9449 29.3346ZM11.5941 34.8694C12.1138 34.8694 12.5383 34.6961 12.8674 34.3497C13.2052 33.9945 13.3741 33.5225 13.3741 32.9335C13.3741 32.3445 13.2052 31.8768 12.8674 31.5303C12.5383 31.1752 12.1138 30.9976 11.5941 30.9976C11.0744 30.9976 10.6457 31.1752 10.3079 31.5303C9.97873 31.8768 9.81416 32.3445 9.81416 32.9335C9.81416 33.5225 9.97873 33.9945 10.3079 34.3497C10.6457 34.6961 11.0744 34.8694 11.5941 34.8694ZM19.4889 29.3346C20.5716 29.3346 21.4031 29.5944 21.9834 30.1141C22.5638 30.6252 22.8539 31.4004 22.8539 32.4398V36.4285H20.957V35.558C20.5759 36.2076 19.8657 36.5324 18.8263 36.5324C18.2893 36.5324 17.8215 36.4415 17.4231 36.2596C17.0333 36.0777 16.7345 35.8265 16.5266 35.506C16.3187 35.1855 16.2148 34.8217 16.2148 34.4146C16.2148 33.765 16.4573 33.254 16.9424 32.8815C17.4361 32.5091 18.194 32.3228 19.2161 32.3228H20.8271C20.8271 31.8811 20.6929 31.5433 20.4244 31.3094C20.1558 31.0669 19.7531 30.9456 19.2161 30.9456C18.8436 30.9456 18.4755 31.0063 18.1117 31.1275C17.7566 31.2401 17.4534 31.396 17.2022 31.5953L16.4746 30.1791C16.8557 29.9106 17.3105 29.7027 17.8388 29.5554C18.3759 29.4082 18.9259 29.3346 19.4889 29.3346ZM19.333 35.1682C19.6794 35.1682 19.9869 35.0902 20.2554 34.9343C20.524 34.7698 20.7145 34.5316 20.8271 34.2197V33.5052H19.4369C18.6054 33.5052 18.1896 33.778 18.1896 34.3237C18.1896 34.5835 18.2893 34.7914 18.4885 34.9473C18.6964 35.0946 18.9779 35.1682 19.333 35.1682ZM31.9753 29.4385V35.2591C31.9753 36.5411 31.6418 37.4939 30.9749 38.1175C30.3079 38.7411 29.3335 39.0529 28.0515 39.0529C27.3759 39.0529 26.735 38.9707 26.1287 38.8061C25.5223 38.6415 25.02 38.4033 24.6215 38.0915L25.4271 36.6363C25.7216 36.8789 26.094 37.0694 26.5444 37.208C26.9948 37.3553 27.4452 37.4289 27.8956 37.4289C28.5972 37.4289 29.1126 37.2686 29.4417 36.9482C29.7795 36.6363 29.9485 36.16 29.9485 35.519V35.2202C29.4201 35.8005 28.6838 36.0907 27.7397 36.0907C27.0988 36.0907 26.5098 35.9521 25.9728 35.6749C25.4444 35.3891 25.0243 34.9906 24.7125 34.4796C24.4007 33.9686 24.2448 33.3796 24.2448 32.7126C24.2448 32.0457 24.4007 31.4567 24.7125 30.9456C25.0243 30.4346 25.4444 30.0405 25.9728 29.7633C26.5098 29.4775 27.0988 29.3346 27.7397 29.3346C28.7531 29.3346 29.524 29.668 30.0524 30.335V29.4385H31.9753ZM28.1425 34.4276C28.6795 34.4276 29.1169 34.2717 29.4547 33.9599C29.8012 33.6394 29.9744 33.2237 29.9744 32.7126C29.9744 32.2016 29.8012 31.7902 29.4547 31.4783C29.1169 31.1578 28.6795 30.9976 28.1425 30.9976C27.6055 30.9976 27.1637 31.1578 26.8173 31.4783C26.4708 31.7902 26.2976 32.2016 26.2976 32.7126C26.2976 33.2237 26.4708 33.6394 26.8173 33.9599C27.1637 34.2717 27.6055 34.4276 28.1425 34.4276ZM40.7088 32.9595C40.7088 32.9855 40.6958 33.1674 40.6698 33.5052H35.3818C35.4771 33.9382 35.7023 34.2804 36.0575 34.5316C36.4126 34.7828 36.8543 34.9083 37.3827 34.9083C37.7465 34.9083 38.067 34.8564 38.3441 34.7524C38.63 34.6398 38.8941 34.4666 39.1367 34.2327L40.215 35.4021C39.5568 36.1556 38.5953 36.5324 37.3307 36.5324C36.5425 36.5324 35.8452 36.3808 35.2389 36.0777C34.6326 35.7659 34.1649 35.3371 33.8357 34.7914C33.5066 34.2457 33.342 33.6264 33.342 32.9335C33.342 32.2492 33.5023 31.6342 33.8227 31.0886C34.1519 30.5342 34.598 30.1055 35.161 29.8023C35.7326 29.4905 36.3693 29.3346 37.0709 29.3346C37.7551 29.3346 38.3744 29.4818 38.9288 29.7763C39.4831 30.0708 39.9162 30.4952 40.228 31.0496C40.5485 31.5953 40.7088 32.2319 40.7088 32.9595ZM37.0839 30.8677C36.6248 30.8677 36.2393 30.9976 35.9275 31.2575C35.6157 31.5173 35.4252 31.8724 35.3559 32.3228H38.7989C38.7296 31.8811 38.539 31.5303 38.2272 31.2705C37.9154 31.0019 37.5343 30.8677 37.0839 30.8677Z" fill="url(#paint1_linear_1481_15803)"/>
<path d="M17.7842 15.3633H19.811V22.3533H17.7842V15.3633ZM18.7976 14.3889C18.4251 14.3889 18.122 14.2806 17.8881 14.0641C17.6542 13.8475 17.5373 13.579 17.5373 13.2585C17.5373 12.9381 17.6542 12.6695 17.8881 12.453C18.122 12.2365 18.4251 12.1282 18.7976 12.1282C19.17 12.1282 19.4732 12.2321 19.707 12.44C19.9409 12.6479 20.0578 12.9077 20.0578 13.2196C20.0578 13.5574 19.9409 13.8389 19.707 14.0641C19.4732 14.2806 19.17 14.3889 18.7976 14.3889ZM25.0701 22.4572C24.3252 22.4572 23.6539 22.3056 23.0563 22.0025C22.4673 21.6907 22.0039 21.2619 21.6661 20.7162C21.3369 20.1705 21.1724 19.5512 21.1724 18.8583C21.1724 18.1654 21.3369 17.5461 21.6661 17.0004C22.0039 16.4547 22.4673 16.0303 23.0563 15.7271C23.6539 15.4153 24.3252 15.2594 25.0701 15.2594C25.8063 15.2594 26.4473 15.4153 26.993 15.7271C27.5473 16.0303 27.9501 16.4677 28.2013 17.0393L26.6292 17.8839C26.2654 17.2429 25.7414 16.9224 25.0571 16.9224C24.5287 16.9224 24.0913 17.0956 23.7449 17.4421C23.3984 17.7886 23.2252 18.2606 23.2252 18.8583C23.2252 19.4559 23.3984 19.928 23.7449 20.2745C24.0913 20.6209 24.5287 20.7942 25.0571 20.7942C25.75 20.7942 26.2741 20.4737 26.6292 19.8327L28.2013 20.6902C27.9501 21.2446 27.5473 21.6777 26.993 21.9895C26.4473 22.3013 25.8063 22.4572 25.0701 22.4572ZM33.4999 15.2594C34.1495 15.2594 34.7385 15.411 35.2669 15.7141C35.8039 16.0086 36.224 16.4287 36.5271 16.9744C36.8303 17.5114 36.9819 18.1394 36.9819 18.8583C36.9819 19.5772 36.8303 20.2095 36.5271 20.7552C36.224 21.2922 35.8039 21.7123 35.2669 22.0155C34.7385 22.31 34.1495 22.4572 33.4999 22.4572C32.6077 22.4572 31.9061 22.1757 31.3951 21.6127V24.8738H29.3683V15.3633H31.3042V16.1688C31.8065 15.5625 32.5384 15.2594 33.4999 15.2594ZM33.1491 20.7942C33.6688 20.7942 34.0932 20.6209 34.4224 20.2745C34.7602 19.9193 34.9291 19.4473 34.9291 18.8583C34.9291 18.2693 34.7602 17.8016 34.4224 17.4551C34.0932 17.1 33.6688 16.9224 33.1491 16.9224C32.6294 16.9224 32.2006 17.1 31.8628 17.4551C31.5337 17.8016 31.3691 18.2693 31.3691 18.8583C31.3691 19.4473 31.5337 19.9193 31.8628 20.2745C32.2006 20.6209 32.6294 20.7942 33.1491 20.7942ZM39.0164 22.4572C38.6613 22.4572 38.3625 22.3359 38.1199 22.0934C37.8774 21.8509 37.7561 21.5477 37.7561 21.1839C37.7561 20.8115 37.8774 20.5127 38.1199 20.2875C38.3625 20.0536 38.6613 19.9367 39.0164 19.9367C39.3715 19.9367 39.6704 20.0536 39.9129 20.2875C40.1554 20.5127 40.2767 20.8115 40.2767 21.1839C40.2767 21.5477 40.1554 21.8509 39.9129 22.0934C39.6704 22.3359 39.3715 22.4572 39.0164 22.4572Z" fill="url(#paint2_linear_1481_15803)"/>
<defs>
<linearGradient id="paint0_linear_1481_15803" x1="2.83506" y1="6.03578" x2="38.2787" y2="47.8102" gradientUnits="userSpaceOnUse">
<stop stop-color="#3366FF" stop-opacity="0.8"/>
<stop offset="0.1" stop-color="#3054FF" stop-opacity="0.88"/>
<stop offset="0.21" stop-color="#2E45FF" stop-opacity="0.95"/>
<stop offset="0.34" stop-color="#2C3DFF" stop-opacity="0.99"/>
<stop offset="0.5" stop-color="#2C3AFF"/>
<stop offset="0.66" stop-color="#2C3DFF" stop-opacity="0.99"/>
<stop offset="0.79" stop-color="#2E45FF" stop-opacity="0.95"/>
<stop offset="0.9" stop-color="#3054FF" stop-opacity="0.88"/>
<stop offset="1" stop-color="#3366FF" stop-opacity="0.8"/>
</linearGradient>
<linearGradient id="paint1_linear_1481_15803" x1="8.88247" y1="25.4253" x2="16.9734" y2="46.0146" gradientUnits="userSpaceOnUse">
<stop stop-color="#3366FF" stop-opacity="0.8"/>
<stop offset="0.1" stop-color="#3054FF" stop-opacity="0.88"/>
<stop offset="0.21" stop-color="#2E45FF" stop-opacity="0.95"/>
<stop offset="0.34" stop-color="#2C3DFF" stop-opacity="0.99"/>
<stop offset="0.5" stop-color="#2C3AFF"/>
<stop offset="0.66" stop-color="#2C3DFF" stop-opacity="0.99"/>
<stop offset="0.79" stop-color="#2E45FF" stop-opacity="0.95"/>
<stop offset="0.9" stop-color="#3054FF" stop-opacity="0.88"/>
<stop offset="1" stop-color="#3366FF" stop-opacity="0.8"/>
</linearGradient>
<linearGradient id="paint2_linear_1481_15803" x1="18.1993" y1="11.3501" x2="28.3452" y2="29.4232" gradientUnits="userSpaceOnUse">
<stop stop-color="#3366FF" stop-opacity="0.8"/>
<stop offset="0.1" stop-color="#3054FF" stop-opacity="0.88"/>
<stop offset="0.21" stop-color="#2E45FF" stop-opacity="0.95"/>
<stop offset="0.34" stop-color="#2C3DFF" stop-opacity="0.99"/>
<stop offset="0.5" stop-color="#2C3AFF"/>
<stop offset="0.66" stop-color="#2C3DFF" stop-opacity="0.99"/>
<stop offset="0.79" stop-color="#2E45FF" stop-opacity="0.95"/>
<stop offset="0.9" stop-color="#3054FF" stop-opacity="0.88"/>
<stop offset="1" stop-color="#3366FF" stop-opacity="0.8"/>
</linearGradient>
</defs>
</svg>
