<svg width="32" height="32" viewBox="0 0 32 32" fill="none" xmlns="http://www.w3.org/2000/svg">
<rect x="2" y="2" width="28" height="28" rx="14" fill="url(#paint0_linear_1733_8542)"/>
<path d="M23.4286 10H8.57143C8.25536 10 8 10.2554 8 10.5714V22C8 22.3161 8.25536 22.5714 8.57143 22.5714H23.4286C23.7446 22.5714 24 22.3161 24 22V10.5714C24 10.2554 23.7446 10 23.4286 10ZM22.7143 11.9786V21.2857H9.28571V11.9786L8.79286 11.5946L9.49464 10.6929L10.2589 11.2875H21.7429L22.5071 10.6929L23.2089 11.5946L22.7143 11.9786ZM21.7429 11.2857L16 15.75L10.2571 11.2857L9.49286 10.6911L8.79107 11.5929L9.28393 11.9768L15.3839 16.7196C15.5594 16.8559 15.7752 16.9299 15.9973 16.9299C16.2195 16.9299 16.4353 16.8559 16.6107 16.7196L22.7143 11.9786L23.2071 11.5946L22.5054 10.6929L21.7429 11.2857Z" fill="white"/>
<defs>
<linearGradient id="paint0_linear_1733_8542" x1="3.65379" y1="5.52087" x2="24.3292" y2="29.8893" gradientUnits="userSpaceOnUse">
<stop stop-color="#3366FF" stop-opacity="0.8"/>
<stop offset="0.1" stop-color="#3054FF" stop-opacity="0.88"/>
<stop offset="0.21" stop-color="#2E45FF" stop-opacity="0.95"/>
<stop offset="0.34" stop-color="#2C3DFF" stop-opacity="0.99"/>
<stop offset="0.5" stop-color="#2C3AFF"/>
<stop offset="0.66" stop-color="#2C3DFF" stop-opacity="0.99"/>
<stop offset="0.79" stop-color="#2E45FF" stop-opacity="0.95"/>
<stop offset="0.9" stop-color="#3054FF" stop-opacity="0.88"/>
<stop offset="1" stop-color="#3366FF" stop-opacity="0.8"/>
</linearGradient>
</defs>
</svg>
